<svg xmlns="http://www.w3.org/2000/svg" viewBox="0 0 32 32"><path fill="#220728" d="M30,16a3,3,0,0,0-2.28-2.9L26.34,9.67a3,3,0,1,0-4-4L18.9,4.28a3,3,0,0,0-5.8,0L9.67,5.66a3,3,0,1,0-4,4L4.28,13.1a3,3,0,0,0,0,5.8l1.38,3.43a3,3,0,1,0,4,4l3.43,1.38a3,3,0,0,0,5.8,0l3.43-1.38a3,3,0,1,0,4-4l1.38-3.43A3,3,0,0,0,30,16ZM13.33,25.66,9.9,24.28a2.59,2.59,0,0,0-.2-.57l3.55-3.54A5,5,0,0,0,15,20.9v3.28A3,3,0,0,0,13.33,25.66ZM5,15H5a1,1,0,1,1-1,1A1,1,0,0,1,5,15ZM18.67,6.34,22.1,7.72a2.59,2.59,0,0,0,.2.57l-3.55,3.54A5,5,0,0,0,17,11.1V7.82A3,3,0,0,0,18.67,6.34ZM28,16a1,1,0,1,1-1-1h0A1,1,0,0,1,28,16Zm-3.82-1H20.9a5,5,0,0,0-.73-1.75L23.71,9.7a2.59,2.59,0,0,0,.57.2l1.38,3.43A3,3,0,0,0,24.18,15ZM16,19a3,3,0,1,1,3-3A3,3,0,0,1,16,19ZM15,7.82V11.1a5,5,0,0,0-1.75.73L9.7,8.29a2.59,2.59,0,0,0,.2-.57l3.43-1.38A3,3,0,0,0,15,7.82ZM8.29,9.7l3.54,3.55A5,5,0,0,0,11.1,15H7.82a3,3,0,0,0-1.48-1.67L7.72,9.9A2.59,2.59,0,0,0,8.29,9.7ZM7.82,17H11.1a5,5,0,0,0,.73,1.75L8.29,22.3a2.59,2.59,0,0,0-.57-.2L6.34,18.67A3,3,0,0,0,7.82,17ZM17,24.18V20.9a5,5,0,0,0,1.75-.73l3.55,3.54a2.59,2.59,0,0,0-.2.57l-3.43,1.38A3,3,0,0,0,17,24.18Zm6.71-1.88-3.54-3.55A5,5,0,0,0,20.9,17h3.28a3,3,0,0,0,1.48,1.67L24.28,22.1A2.59,2.59,0,0,0,23.71,22.3ZM25,6a1,1,0,1,1-1,1A1,1,0,0,1,25,6ZM16,4a1,1,0,1,1-1,1A1,1,0,0,1,16,4ZM7,6A1,1,0,1,1,6,7,1,1,0,0,1,7,6ZM7,26a1,1,0,0,1,0-2H7a1,1,0,0,1,0,2Zm9,2a1,1,0,1,1,1-1A1,1,0,0,1,16,28Zm9-2a1,1,0,0,1,0-2h0a1,1,0,0,1,0,2Z"/></svg>